<svg width="11" height="11" viewBox="0 0 11 11" fill="none" xmlns="http://www.w3.org/2000/svg">
<g clip-path="url(#clip0_801_845)">
<path d="M5.5 0.5C8.25711 0.5 10.5 2.74289 10.5 5.5C10.5 8.25711 8.25711 10.5 5.5 10.5C2.74289 10.5 0.5 8.25711 0.5 5.5C0.5 2.74289 2.74289 0.5 5.5 0.5Z" fill="#F44336"/>
<path d="M3.65866 6.75212C3.49577 6.91509 3.49577 7.17838 3.65866 7.34134C3.73991 7.4226 3.84657 7.46341 3.9533 7.46341C4.05996 7.46341 4.16662 7.4226 4.24788 7.34134L5.49994 6.08921L6.752 7.34134C6.83325 7.4226 6.93991 7.46341 7.04657 7.46341C7.1533 7.46341 7.25996 7.4226 7.34121 7.34134C7.5041 7.17838 7.5041 6.91509 7.34121 6.75212L6.08908 5.50006L7.34121 4.248C7.5041 4.08504 7.5041 3.82175 7.34121 3.65879C7.17825 3.4959 6.91496 3.4959 6.752 3.65879L5.49994 4.91092L4.24788 3.65879C4.08491 3.4959 3.82162 3.4959 3.65866 3.65879C3.49577 3.82175 3.49577 4.08504 3.65866 4.248L4.91079 5.50006L3.65866 6.75212Z" fill="#FAFAFA"/>
</g>
<defs>
<clipPath id="clip0_801_845">
<rect width="10" height="10" fill="white" transform="matrix(-1 0 0 1 10.5 0.5)"/>
</clipPath>
</defs>
</svg>
