<svg width="15" height="17" viewBox="0 0 15 17" fill="none" xmlns="http://www.w3.org/2000/svg">
<path fill-rule="evenodd" clip-rule="evenodd" d="M13.961 1.04692C13.0819 0.591597 12.0002 0.935104 11.5449 1.81415L9.55623 5.65353C9.54557 5.67411 9.53637 5.69508 9.5286 5.71627C8.55449 5.68287 7.58955 6.11318 6.93876 6.87483C6.172 7.77219 5.22866 8.75147 4.42256 9.25153C3.2733 9.96448 2.32319 10.2214 1.73317 10.3126C1.3881 10.366 1.10802 10.5881 0.971587 10.8762C0.829071 11.1772 0.839813 11.5715 1.11676 11.8767C1.71882 12.5401 2.89264 13.6269 5.04563 14.9962C6.53684 15.9446 7.87379 16.4691 8.59334 16.7121C9.14478 16.8984 9.7341 16.6854 10.0505 16.2115C10.4505 15.6124 11.1531 14.4825 11.7563 13.1077C12.2026 12.0906 12.587 11.0424 12.955 9.99586C13.2654 9.11308 13.1258 8.18186 12.6539 7.44584L14.7264 3.4666C15.1844 2.58718 14.8414 1.50295 13.961 1.04692ZM11.8722 6.62549L13.7754 2.97132C13.9595 2.61792 13.8217 2.18221 13.4679 1.99895C13.1146 1.81598 12.6799 1.95403 12.4969 2.30728L10.6078 5.95456C10.671 5.98141 10.7338 6.01056 10.796 6.04211L11.4863 6.39211C11.6222 6.46104 11.7511 6.5392 11.8722 6.62549ZM11.9435 9.64023C11.8671 9.85749 11.7866 10.0835 11.7031 10.3136L7.35229 8.03036C7.49235 7.87419 7.62672 7.72015 7.75388 7.57132C8.40146 6.81345 9.46439 6.56906 10.3111 6.99838L11.0014 7.3484C11.852 7.77961 12.2541 8.75679 11.9435 9.64023ZM4.98775 10.1626C5.51678 9.83446 6.06882 9.35485 6.58682 8.83943L6.59377 8.84314L11.3254 11.3262C11.1434 11.7994 10.9563 12.2625 10.7745 12.6769C10.2049 13.9751 9.5381 15.0481 9.15884 15.6161C9.1048 15.6971 9.01701 15.7236 8.93641 15.6963C8.61998 15.5895 8.16788 15.4213 7.62895 15.1774C7.87909 14.9137 8.24192 14.4826 8.58961 13.8902C8.73986 13.6342 8.65303 13.3092 8.39567 13.1644C8.13831 13.0195 7.80788 13.1096 7.65765 13.3656C7.37816 13.8417 7.0368 14.3107 6.61825 14.6765C6.29903 14.5043 5.96441 14.3099 5.62101 14.0915C5.34179 13.9139 5.08031 13.7417 4.83555 13.5752C4.96291 13.4895 5.10256 13.3845 5.25247 13.2559C5.47796 13.0626 5.50035 12.7283 5.30249 12.5094C5.10464 12.2904 4.76148 12.2697 4.53602 12.463C4.20416 12.7476 3.97241 12.8559 3.87899 12.8924C3.02534 12.251 2.4534 11.7244 2.08326 11.3405C2.80037 11.2071 3.81336 10.8912 4.98775 10.1626Z" fill="#080E91"/>
</svg>
