<svg width="11" height="11" viewBox="0 0 11 11" fill="none" xmlns="http://www.w3.org/2000/svg">
<path d="M0.342211 9.00749C-0.11407 9.464 -0.11407 10.2015 0.342211 10.658C0.569817 10.8857 0.868589 11 1.16758 11C1.46635 11 1.76512 10.8857 1.99273 10.658L5.5 7.15048L9.00727 10.658C9.23488 10.8857 9.53365 11 9.83242 11C10.1314 11 10.4302 10.8857 10.6578 10.658C11.1141 10.2015 11.1141 9.464 10.6578 9.00749L7.1503 5.50013L10.6578 1.99278C11.1141 1.53627 11.1141 0.798724 10.6578 0.342219C10.2013 -0.114073 9.46377 -0.114073 9.00727 0.342219L5.5 3.84979L1.99273 0.342219C1.53623 -0.114073 0.798705 -0.114073 0.342211 0.342219C-0.11407 0.798724 -0.11407 1.53627 0.342211 1.99278L3.8497 5.50013L0.342211 9.00749Z" fill="#101017"/>
</svg>
