<svg width="17" height="16" viewBox="0 0 17 16" fill="none" xmlns="http://www.w3.org/2000/svg">
<path d="M10.0182 14.1539C10.4179 14.1539 10.8012 13.9918 11.0838 13.7033C11.3664 13.4148 11.5251 13.0234 11.5251 12.6154C11.5251 12.2074 11.3664 11.8161 11.0838 11.5276C10.8012 11.239 10.4179 11.077 10.0182 11.077C9.61858 11.077 9.23529 11.239 8.95269 11.5276C8.6701 11.8161 8.51133 12.2074 8.51133 12.6154C8.51133 13.0234 8.6701 13.4148 8.95269 13.7033C9.23529 13.9918 9.61858 14.1539 10.0182 14.1539ZM4.74407 14.1539C5.14372 14.1539 5.52701 13.9918 5.80961 13.7033C6.09221 13.4148 6.25097 13.0234 6.25097 12.6154C6.25097 12.2074 6.09221 11.8161 5.80961 11.5276C5.52701 11.239 5.14372 11.077 4.74407 11.077C4.34441 11.077 3.96112 11.239 3.67852 11.5276C3.39592 11.8161 3.23716 12.2074 3.23716 12.6154C3.23716 13.0234 3.39592 13.4148 3.67852 13.7033C3.96112 13.9918 4.34441 14.1539 4.74407 14.1539ZM14.5676 3.32542C14.7557 3.31923 14.934 3.23859 15.0649 3.10056C15.1959 2.96253 15.269 2.77794 15.269 2.58581C15.269 2.39368 15.1959 2.20908 15.0649 2.07105C14.934 1.93302 14.7557 1.85239 14.5676 1.84619H13.7004C13.0207 1.84619 12.4331 2.32773 12.2854 3.00465L11.3413 7.34465C11.1936 8.02158 10.6059 8.50311 9.92632 8.50311H4.26638L3.1799 4.06465H10.2209C10.4072 4.05597 10.5831 3.9743 10.712 3.83662C10.8408 3.69893 10.9127 3.51584 10.9127 3.32542C10.9127 3.135 10.8408 2.95191 10.712 2.81423C10.5831 2.67655 10.4072 2.59487 10.2209 2.58619H3.1799C2.95964 2.58613 2.74226 2.63733 2.5443 2.73591C2.34633 2.83449 2.17299 2.97785 2.03744 3.1551C1.90189 3.33235 1.80771 3.53882 1.76205 3.7588C1.71639 3.97879 1.72047 4.20651 1.77396 4.42465L2.86043 8.86158C2.93876 9.18173 3.11969 9.46595 3.37445 9.66903C3.6292 9.87212 3.94316 9.9824 4.26638 9.98235H9.92632C10.5857 9.98244 11.2255 9.7529 11.7399 9.33165C12.2543 8.91041 12.6125 8.32264 12.7555 7.66542L13.7004 3.32542H14.5676Z" fill="white"/>
</svg>
