<svg width="14" height="16" viewBox="0 0 14 16" fill="none" xmlns="http://www.w3.org/2000/svg">
<path d="M5.9492 13.9711C6.19899 13.9711 6.43854 13.8698 6.61517 13.6895C6.79179 13.5092 6.89102 13.2646 6.89102 13.0096C6.89102 12.7546 6.79179 12.51 6.61517 12.3297C6.43854 12.1493 6.19899 12.048 5.9492 12.048C5.69942 12.048 5.45986 12.1493 5.28324 12.3297C5.10661 12.51 5.00739 12.7546 5.00739 13.0096C5.00739 13.2646 5.10661 13.5092 5.28324 13.6895C5.45986 13.8698 5.69942 13.9711 5.9492 13.9711ZM2.65285 13.9711C2.90263 13.9711 3.14219 13.8698 3.31881 13.6895C3.49544 13.5092 3.59466 13.2646 3.59466 13.0096C3.59466 12.7546 3.49544 12.51 3.31881 12.3297C3.14219 12.1493 2.90263 12.048 2.65285 12.048C2.40306 12.048 2.16351 12.1493 1.98688 12.3297C1.81026 12.51 1.71103 12.7546 1.71103 13.0096C1.71103 13.2646 1.81026 13.5092 1.98688 13.6895C2.16351 13.8698 2.40306 13.9711 2.65285 13.9711ZM8.79255 7.20333C8.9101 7.19946 9.02158 7.14906 9.10339 7.06279C9.18521 6.97652 9.23096 6.86115 9.23096 6.74107C9.23096 6.62099 9.18521 6.50561 9.10339 6.41935C9.02158 6.33308 8.9101 6.28268 8.79255 6.27881H8.25053C7.82577 6.27881 7.45846 6.57977 7.36617 7.00285L6.77612 9.71535C6.68382 10.1384 6.31651 10.4394 5.89175 10.4394H2.35429L1.67524 7.66535H6.07588C6.19233 7.65992 6.30225 7.60888 6.38278 7.52282C6.4633 7.43677 6.50824 7.32234 6.50824 7.20333C6.50824 7.08432 6.4633 6.96988 6.38278 6.88383C6.30225 6.79778 6.19233 6.74673 6.07588 6.74131H1.67524C1.53758 6.74127 1.40172 6.77327 1.27799 6.83488C1.15426 6.8965 1.04592 6.9861 0.961203 7.09688C0.876485 7.20766 0.817621 7.3367 0.789086 7.47419C0.760551 7.61168 0.763097 7.75401 0.796528 7.89035L1.47558 10.6634C1.52453 10.8635 1.63761 11.0412 1.79683 11.1681C1.95606 11.295 2.15228 11.3639 2.35429 11.3639H5.89175C6.30389 11.364 6.70373 11.2205 7.02522 10.9572C7.34672 10.6939 7.57064 10.3266 7.66001 9.91583L8.25053 7.20333H8.79255Z" fill="#101017"/>
<circle cx="9" cy="5.875" r="5" fill="#5EB935"/>
<path d="M11 4.875L8.48404 7.875L7 6.15353" stroke="white" stroke-linecap="round"/>
</svg>
