<svg width="40" height="40" viewBox="0 0 40 40" fill="none" xmlns="http://www.w3.org/2000/svg">
<path d="M22.3333 20L29.5 12.8333C30.1667 12.1667 30.1667 11.1667 29.5 10.5C28.8333 9.83333 27.8333 9.83333 27.1667 10.5L20 17.6667L12.8333 10.5C12.1667 9.83333 11.1667 9.83333 10.5 10.5C9.83333 11.1667 9.83333 12.1667 10.5 12.8333L17.6667 20L10.5 27.1667C9.83333 27.8333 9.83333 28.8333 10.5 29.5C10.8333 29.8333 11.1667 30 11.6667 30C12.1667 30 12.5 29.8333 12.8333 29.5L20 22.3333L27.1667 29.5C27.5 29.8333 28 30 28.3333 30C28.6667 30 29.1667 29.8333 29.5 29.5C30.1667 28.8333 30.1667 27.8333 29.5 27.1667L22.3333 20Z" fill="#B1B5BD"/>
</svg>
